# xmcd CD database file
# Copyright (C) 1995-1998 Ti Kan
#
# Track frame offsets:
#	150
#	13856
#	30722
#	47561
#	61208
#	78041
#	101451
#	113479
#	131264
#
# Disc length: 2409 seconds
#
# Revision: 1
# Processed by: cddbd v1.4b41PL1 Copyright (c) Steve Scherf et al.
# Submitted via: CDex 1.30
#
DISCID=5f096709
DTITLE=Po Boy and The Red Hats - One True Love
DYEAR=1999
DGENRE=Blues
TTITLE0=Ea-sy-s' Blues
TTITLE1=She'll Be Waiting
TTITLE2=Riverside
TTITLE3=One True Love
TTITLE4=Can't Say
TTITLE5=Doesn't Live Here
TTITLE6=Not My Place
TTITLE7=Song
TTITLE8=King Of Nothing
EXTD=YEAR: 1999  ID3G:   0
EXTT0=
EXTT1=
EXTT2=
EXTT3=
EXTT4=
EXTT5=
EXTT6=
EXTT7=
EXTT8=
PLAYORDER=
